# Blender v2.70 (sub 0) OBJ File: ''
# www.blender.org
mtllib smiley.mtl
o Cube_Cube.001
v -0.500000 -0.500000 0.500000
v -0.500000 -0.500000 -0.500000
v 0.500000 -0.500000 -0.500000
v 0.500000 -0.500000 0.500000
v -0.500000 0.500000 0.500000
v -0.500000 0.500000 -0.500000
v 0.500000 0.500000 -0.500000
v 0.500000 0.500000 0.500000
vt 1.000000 0.000000
vt 1.000000 -1.000000
vt 0.000000 -1.000000
vt -1.000000 0.000000
vt -1.000000 -1.000000
vt 0.000000 1.000000
vt 1.000000 1.000000
vt -1.000000 1.000000
vt 0.000000 0.000000
vn -0.577349 0.577349 -0.577349
vn -0.577349 -0.577349 -0.577349
vn -0.577349 -0.577349 0.577349
vn 0.577349 0.577349 -0.577349
vn 0.577349 -0.577349 -0.577349
vn 0.577349 0.577349 0.577349
vn 0.577349 -0.577349 0.577349
vn -0.577349 0.577349 0.577349
usemtl Material.001
s 1
f 6/1/1 2/2/2 1/3/3
f 7/1/4 3/2/5 2/3/2
f 8/4/6 4/5/7 3/3/5
f 5/4/8 1/5/3 4/3/7
f 2/6/2 3/7/5 4/1/7
f 7/6/4 6/8/1 5/4/8
f 5/9/8 6/1/1 1/3/3
f 6/9/1 7/1/4 2/3/2
f 7/9/4 8/4/6 3/3/5
f 8/9/6 5/4/8 4/3/7
f 1/9/3 2/6/2 4/1/7
f 8/9/6 7/6/4 5/4/8
